<?xml version="1.0" encoding="utf-8"?>
<svg xmlns="http://www.w3.org/2000/svg" height="512pt" version="1.1" viewBox="0 0 512 512" width="512pt">
<path d="M 0.00 0.00 L 512.00 0.00 L 512.00 512.00 L 0.00 512.00 L 0.00 0.00 Z" fill="transparent" opacity="1.00" stroke="#dcdbdd" stroke-width="0.25"/>
<path d="M 254.51 57.35 C 255.69 56.40 256.76 55.32 257.76 54.17 C 258.03 54.66 258.57 55.64 258.84 56.12 C 260.27 60.04 262.88 63.30 265.33 66.61 C 277.38 83.05 290.97 98.27 303.27 114.52 C 305.80 118.04 309.15 120.97 311.05 124.92 C 304.74 119.24 299.49 112.53 293.52 106.50 C 282.16 93.59 270.19 80.94 261.71 65.85 C 260.98 64.47 260.35 63.01 259.24 61.89 C 260.00 101.98 259.70 142.08 259.82 182.18 C 257.45 182.15 255.10 182.04 252.75 181.88 C 253.07 152.92 252.95 123.97 253.16 95.01 C 253.09 89.39 253.70 83.72 252.65 78.14 C 249.13 81.66 247.31 86.36 244.77 90.55 C 236.39 105.31 224.11 117.26 212.01 128.96 C 204.42 137.96 196.18 146.40 188.64 155.44 C 187.96 153.14 191.72 151.11 188.54 149.62 C 192.29 145.61 195.63 141.21 199.90 137.71 C 204.27 133.41 209.57 130.17 213.94 125.87 C 224.50 112.03 235.91 98.83 244.80 83.80 C 248.51 77.68 252.98 71.49 253.41 64.08 C 253.42 61.78 254.33 59.63 254.51 57.35 Z" fill="#f4f0eb" opacity="1.00" stroke="#f4f0eb" stroke-width="0.25"/>
<path d="M 258.58 55.06 C 262.40 56.28 264.37 60.23 266.82 63.13 C 275.16 74.74 284.20 85.81 293.35 96.79 C 296.44 100.35 298.89 104.64 302.75 107.42 C 303.29 108.76 304.03 110.01 305.02 111.08 C 307.28 113.74 308.96 117.18 312.26 118.76 C 323.87 124.20 334.57 131.41 344.69 139.24 C 356.95 148.17 368.29 158.47 377.63 170.45 C 381.54 175.30 385.65 180.30 387.50 186.35 C 389.25 193.44 392.54 200.01 394.94 206.89 C 397.87 214.39 400.07 222.15 401.92 229.99 C 402.76 232.80 403.23 235.78 404.63 238.39 C 408.45 243.52 412.54 248.49 416.95 253.14 C 418.24 255.02 420.72 254.07 422.59 254.12 C 419.58 249.38 415.09 245.77 411.51 241.46 L 410.97 240.07 C 413.45 239.74 414.78 242.23 416.34 243.71 C 419.58 247.68 423.27 251.23 426.94 254.79 C 422.53 255.17 418.09 254.67 413.67 255.00 C 411.52 248.86 406.19 244.74 402.12 239.95 C 400.58 236.87 400.57 233.30 399.60 230.03 C 396.42 216.87 391.88 204.07 386.67 191.58 C 385.76 188.21 385.42 184.57 383.37 181.63 C 369.64 161.64 350.99 145.60 331.11 131.98 C 324.68 127.77 318.21 123.55 311.19 120.37 C 312.80 122.82 313.87 125.90 316.60 127.34 C 330.41 135.41 343.31 145.04 355.01 155.94 C 364.05 163.60 372.22 172.40 378.58 182.43 C 379.98 184.90 380.85 187.62 381.82 190.27 C 383.32 193.95 380.94 198.27 383.29 201.72 C 388.58 211.68 393.60 221.94 395.74 233.11 C 396.38 235.38 396.03 238.36 398.38 239.73 C 402.24 242.59 405.20 246.49 409.38 248.96 C 409.48 249.55 409.67 250.72 409.77 251.31 C 410.57 252.38 411.35 253.47 412.11 254.58 C 411.54 254.61 410.38 254.68 409.80 254.71 C 407.14 253.88 404.17 255.84 401.78 254.06 C 403.02 253.19 404.38 252.53 405.93 252.42 C 404.10 251.22 403.57 249.15 402.96 247.20 C 401.58 245.35 399.64 244.02 397.87 242.59 C 393.96 241.05 391.03 237.92 387.27 236.17 C 387.96 240.40 391.99 243.28 394.62 246.53 C 396.24 248.98 396.84 251.92 397.89 254.63 C 395.08 254.77 392.27 254.96 389.46 255.18 C 389.34 254.65 389.10 253.60 388.98 253.08 C 385.91 248.75 382.81 244.45 379.97 239.97 C 377.12 234.78 374.31 229.51 370.65 224.84 C 367.62 221.28 365.30 217.21 362.62 213.40 C 356.23 203.88 348.99 194.98 341.87 186.01 C 328.44 170.74 316.13 154.53 302.90 139.09 C 300.81 137.13 299.01 134.08 295.82 134.06 C 301.85 143.33 307.99 152.57 314.69 161.38 C 319.89 167.18 324.33 173.70 330.14 178.92 C 331.27 181.31 331.84 184.22 334.31 185.67 C 343.01 191.69 348.62 200.89 354.90 209.18 C 358.13 214.20 362.28 218.60 365.61 223.53 C 355.88 211.75 347.19 199.04 336.23 188.34 C 335.90 187.90 335.24 187.04 334.91 186.60 C 333.51 186.40 332.23 185.91 332.16 184.19 C 329.45 185.85 328.08 188.82 326.30 191.33 C 319.07 201.76 312.07 212.37 304.34 222.44 C 303.61 223.56 302.28 224.53 302.44 226.02 C 323.05 225.78 343.68 226.27 364.29 225.80 C 366.00 225.92 367.70 226.15 369.40 226.44 C 369.25 226.86 368.93 227.70 368.78 228.11 C 346.20 228.11 323.60 227.70 301.04 228.31 C 294.72 236.79 288.86 245.88 281.68 253.78 L 282.54 253.84 C 283.42 253.90 285.17 254.02 286.04 254.08 C 320.41 253.72 354.78 253.99 389.15 253.90 L 388.55 255.05 C 378.72 255.54 368.86 255.22 359.02 255.34 C 328.35 255.38 297.68 255.46 267.01 255.20 C 266.36 255.10 265.72 254.99 265.08 254.86 C 266.76 254.57 268.45 254.36 270.15 254.20 C 278.43 241.94 287.92 230.57 296.71 218.67 C 304.88 207.90 313.69 197.62 321.72 186.75 C 322.92 185.42 323.58 183.14 325.70 183.08 C 325.85 186.22 323.12 188.33 321.76 190.90 C 319.20 195.42 314.92 198.56 311.91 202.73 C 301.86 215.94 291.75 229.11 282.00 242.56 C 279.18 246.63 275.75 250.24 273.07 254.41 C 274.72 254.36 276.37 254.30 278.02 254.24 C 280.27 251.63 282.27 248.82 284.50 246.20 C 292.93 235.33 300.84 224.06 308.83 212.87 C 313.50 206.48 317.59 199.67 322.53 193.47 C 325.57 189.44 328.50 185.30 330.81 180.80 C 329.29 180.72 327.76 180.43 326.87 179.08 C 319.11 170.69 312.88 161.06 306.16 151.85 C 302.49 145.64 297.95 139.92 294.95 133.33 C 291.77 128.70 287.67 124.72 284.69 119.96 C 284.99 119.55 285.57 118.73 285.87 118.31 C 289.36 122.97 292.92 127.70 297.55 131.31 C 301.74 134.44 305.24 138.37 308.47 142.46 C 317.96 154.28 327.83 165.79 337.42 177.54 C 345.33 186.78 353.08 196.19 360.10 206.13 C 365.31 213.86 371.65 220.93 375.68 229.39 C 376.29 231.00 377.15 232.52 378.21 233.89 C 382.89 240.22 387.28 246.77 392.10 253.01 C 393.09 254.50 395.21 253.99 396.71 254.47 C 396.98 252.76 395.67 251.50 394.82 250.21 C 389.52 243.24 383.68 236.60 379.89 228.63 C 379.67 226.64 378.57 225.06 376.99 223.89 C 370.68 218.72 366.86 211.37 362.21 204.84 C 353.87 193.51 345.68 182.07 336.93 171.05 C 325.67 157.57 316.39 142.54 304.64 129.45 C 298.45 122.94 292.77 115.95 286.18 109.83 C 282.08 106.10 278.25 102.09 274.24 98.26 C 270.19 94.33 265.65 90.82 262.37 86.17 C 261.96 118.69 262.10 151.23 262.18 183.76 C 259.72 183.92 257.26 184.16 254.79 184.27 C 253.54 183.23 250.95 183.06 250.88 181.09 C 250.77 156.40 251.06 131.71 251.00 107.01 C 250.97 98.63 251.08 90.24 251.80 81.89 C 249.93 85.08 247.39 87.80 245.30 90.84 C 246.35 91.65 247.19 93.38 248.87 92.44 C 248.74 94.19 248.59 95.95 248.47 97.71 C 246.06 101.23 244.23 105.14 241.59 108.50 C 234.35 116.67 228.33 125.85 220.66 133.66 C 212.86 140.96 206.97 149.96 199.73 157.78 C 198.62 159.02 197.35 160.20 196.78 161.81 C 197.74 161.73 199.65 161.55 200.61 161.47 C 203.39 161.98 206.09 162.99 208.26 164.85 C 217.53 172.19 225.77 180.78 233.31 189.87 C 233.23 190.09 233.07 190.54 233.00 190.76 C 224.86 182.56 217.26 173.71 208.00 166.73 C 205.71 165.27 203.30 162.93 200.36 164.06 C 203.08 167.61 207.16 169.72 210.40 172.75 C 218.33 178.84 224.89 186.44 231.65 193.74 C 241.85 206.38 252.94 218.26 263.18 230.86 C 266.76 235.00 270.06 239.38 273.82 243.36 C 273.79 243.98 273.75 245.23 273.73 245.85 C 255.78 225.61 239.42 203.96 220.79 184.31 C 214.71 177.12 206.75 171.89 199.95 165.47 C 198.50 164.15 196.54 163.69 194.74 163.05 C 175.84 182.60 159.85 204.67 142.98 225.94 C 146.48 226.01 149.98 225.98 153.49 225.86 C 173.01 225.76 192.55 225.85 212.07 225.82 C 212.53 225.71 213.44 225.50 213.90 225.40 C 205.07 212.67 196.33 199.82 186.19 188.09 C 186.29 187.81 186.48 187.26 186.58 186.99 C 198.30 199.91 208.49 214.15 217.95 228.78 C 217.91 229.32 217.83 230.40 217.79 230.94 C 217.14 230.18 216.49 229.42 215.84 228.68 C 213.31 228.42 210.77 228.34 208.23 228.37 C 186.46 227.85 164.67 228.30 142.89 228.06 C 141.53 227.80 140.78 229.12 140.05 229.98 C 135.06 236.67 129.72 243.10 124.76 249.81 C 123.96 250.79 123.53 251.98 123.12 253.16 C 122.33 253.14 120.77 253.10 119.98 253.08 L 119.79 254.43 C 123.63 252.76 127.71 254.62 131.70 254.10 C 166.10 253.79 200.49 253.83 234.89 254.21 C 237.04 254.24 239.20 254.28 241.36 254.41 C 239.21 255.00 236.99 255.22 234.78 255.35 C 196.55 255.25 158.32 255.70 120.09 255.14 C 113.76 254.26 107.23 255.37 101.01 254.25 C 105.92 251.89 108.07 246.42 109.43 241.49 C 105.03 245.60 101.67 250.69 97.32 254.82 C 95.91 255.01 94.49 254.98 93.08 254.73 C 97.10 250.89 101.01 246.94 104.72 242.79 C 106.84 240.22 110.46 238.70 111.13 235.14 C 117.13 214.56 125.77 194.27 139.97 177.94 C 144.15 172.55 149.08 167.81 154.01 163.11 C 155.75 161.66 157.66 159.87 160.09 159.95 C 150.06 170.07 139.88 180.27 132.32 192.46 C 123.33 206.01 117.40 221.36 113.08 236.97 C 111.52 241.91 110.25 246.95 108.33 251.77 L 109.93 251.26 C 113.10 246.77 118.70 243.24 119.07 237.35 C 121.38 237.57 122.36 235.12 123.68 233.71 C 127.46 229.38 130.58 224.55 134.09 220.02 C 145.51 206.76 156.37 193.07 167.64 179.69 C 169.81 176.71 172.72 174.27 174.42 170.94 C 173.22 170.07 172.06 169.14 170.93 168.20 C 161.03 178.68 151.25 189.35 143.32 201.45 C 139.19 207.70 135.59 214.31 131.14 220.34 C 130.68 220.42 129.77 220.58 129.31 220.65 C 130.71 217.44 133.29 214.90 134.73 211.70 C 139.34 202.16 145.39 193.38 152.24 185.32 C 157.84 178.60 163.66 171.98 170.48 166.44 C 177.16 159.63 183.25 152.27 190.43 145.95 L 190.55 144.70 C 185.66 146.23 182.09 150.05 178.53 153.52 C 167.68 162.32 157.56 172.02 148.16 182.36 C 140.05 191.71 133.29 202.23 128.33 213.57 C 124.41 220.71 122.99 228.79 120.74 236.53 L 119.13 237.10 C 122.37 216.02 132.81 196.63 146.54 180.54 C 152.90 173.90 159.14 167.09 166.29 161.30 C 171.46 155.76 177.58 151.19 183.45 146.42 C 188.32 142.53 194.67 139.28 196.94 133.15 C 185.16 139.49 174.40 147.61 164.46 156.52 C 162.92 157.84 161.10 159.04 158.98 158.84 C 159.47 156.89 161.64 156.30 162.89 154.93 C 169.48 148.36 177.33 143.29 184.79 137.79 C 189.87 134.06 195.68 131.49 200.82 127.86 C 204.60 123.91 207.31 119.05 211.19 115.18 C 221.73 104.44 229.38 91.39 238.45 79.47 C 241.86 74.47 245.24 69.45 248.76 64.53 C 249.74 63.20 251.08 62.21 252.38 61.22 C 253.03 59.54 253.72 57.89 254.48 56.26 C 254.48 56.53 254.50 57.08 254.51 57.35 C 254.33 59.63 253.42 61.78 253.41 64.08 C 252.98 71.49 248.51 77.68 244.80 83.80 C 235.91 98.83 224.50 112.03 213.94 125.87 C 209.57 130.17 204.27 133.41 199.90 137.71 C 195.63 141.21 192.29 145.61 188.54 149.62 C 183.59 156.31 177.16 161.62 171.54 167.68 C 172.86 168.31 174.15 170.47 175.80 169.65 C 180.44 165.26 184.65 160.42 188.64 155.44 C 196.18 146.40 204.42 137.96 212.01 128.96 C 224.11 117.26 236.39 105.31 244.77 90.55 C 247.31 86.36 249.13 81.66 252.65 78.14 C 253.70 83.72 253.09 89.39 253.16 95.01 C 252.95 123.97 253.07 152.92 252.75 181.88 C 255.10 182.04 257.45 182.15 259.82 182.18 C 259.70 142.08 260.00 101.98 259.24 61.89 C 260.35 63.01 260.98 64.47 261.71 65.85 C 270.19 80.94 282.16 93.59 293.52 106.50 C 299.49 112.53 304.74 119.24 311.05 124.92 C 309.15 120.97 305.80 118.04 303.27 114.52 C 290.97 98.27 277.38 83.05 265.33 66.61 C 262.88 63.30 260.27 60.04 258.84 56.12 L 258.58 55.06 Z" fill="#343131" opacity="1.00" stroke="#343131" stroke-width="0.25"/>
<path d="M 251.13 62.36 L 252.68 62.03 C 252.84 66.25 250.17 69.86 248.62 73.64 C 243.38 83.08 237.24 91.99 231.29 100.99 C 228.85 104.91 225.43 108.06 222.66 111.72 C 217.53 118.28 212.88 125.46 205.97 130.34 C 202.36 132.89 199.65 136.63 195.90 138.90 C 202.61 126.21 214.36 117.21 222.33 105.40 C 232.24 91.28 243.08 77.65 251.13 62.36 Z" fill="#dcdbdd" opacity="1.00" stroke="#dcdbdd" stroke-width="0.25"/>
<path d="M 262.80 75.22 C 264.68 78.52 267.14 81.43 269.60 84.32 L 269.63 84.87 C 269.64 86.38 270.04 87.82 270.41 89.28 C 269.71 88.88 269.02 88.46 268.35 88.03 C 264.76 84.83 261.70 80.28 262.80 75.22 Z" fill="#c1bcb6" opacity="1.00" stroke="#c1bcb6" stroke-width="0.25"/>
<path d="M 245.30 90.84 C 247.39 87.80 249.93 85.08 251.80 81.89 C 251.08 90.24 250.97 98.63 251.00 107.01 C 251.06 131.71 250.77 156.40 250.88 181.09 C 250.95 183.06 253.54 183.23 254.79 184.27 C 257.06 188.25 262.07 185.76 265.49 187.66 C 266.68 187.93 269.25 189.89 269.49 187.67 C 270.17 159.89 269.56 132.08 270.17 104.29 C 275.23 108.23 280.66 112.22 283.16 118.37 C 283.65 118.92 284.16 119.45 284.69 119.96 C 287.67 124.72 291.77 128.70 294.95 133.33 C 297.95 139.92 302.49 145.64 306.16 151.85 C 312.88 161.06 319.11 170.69 326.87 179.08 C 327.76 180.43 329.29 180.72 330.81 180.80 C 328.50 185.30 325.57 189.44 322.53 193.47 C 317.59 199.67 313.50 206.48 308.83 212.87 C 300.84 224.06 292.93 235.33 284.50 246.20 C 283.67 244.98 282.84 243.77 282.00 242.56 C 291.75 229.11 301.86 215.94 311.91 202.73 C 314.92 198.56 319.20 195.42 321.76 190.90 C 323.12 188.33 325.85 186.22 325.70 183.08 C 323.58 183.14 322.92 185.42 321.72 186.75 C 313.69 197.62 304.88 207.90 296.71 218.67 C 287.92 230.57 278.43 241.94 270.15 254.20 C 268.45 254.36 266.76 254.57 265.08 254.86 C 265.72 254.99 266.36 255.10 267.01 255.20 C 262.86 259.03 265.04 265.02 265.59 269.86 C 271.38 278.78 278.21 286.92 285.11 294.99 C 294.59 306.74 304.81 317.87 315.14 328.87 C 317.49 331.16 319.78 333.64 322.78 335.08 C 322.54 334.13 322.06 333.32 321.37 332.64 C 308.04 318.74 295.05 304.48 283.10 289.36 C 284.69 288.26 286.25 287.05 287.20 285.31 C 295.61 295.15 303.20 305.65 311.54 315.55 C 315.78 320.55 319.65 325.90 324.46 330.38 C 325.81 331.79 327.92 331.78 329.69 331.37 C 330.56 331.98 331.39 332.63 332.24 333.29 C 317.63 352.61 302.21 371.29 287.36 390.43 C 281.75 396.77 276.08 403.09 270.91 409.82 C 270.16 408.68 269.85 407.43 269.99 406.05 C 270.06 380.68 269.89 355.31 269.88 329.94 C 270.37 326.90 267.78 324.91 266.35 322.59 C 265.16 321.05 264.25 319.02 262.22 318.47 L 261.28 318.27 C 261.14 317.71 260.87 316.59 260.73 316.04 C 257.16 315.67 253.57 315.72 250.01 316.07 C 248.76 319.57 249.07 323.33 248.97 326.98 C 248.86 344.99 248.96 363.01 248.86 381.02 C 249.15 387.42 248.32 393.89 249.52 400.22 C 250.20 399.28 250.50 398.23 250.43 397.07 C 250.15 374.72 250.48 352.36 250.28 330.00 C 250.25 326.21 250.13 322.41 250.70 318.66 C 251.29 346.78 250.67 374.94 251.09 403.07 C 247.62 401.69 246.77 397.91 245.44 394.83 C 241.97 389.08 236.73 384.67 232.11 379.87 C 222.81 370.13 214.54 359.49 205.66 349.39 C 200.23 342.64 194.56 336.09 188.32 330.09 C 190.79 328.26 193.52 326.83 196.06 325.10 C 202.23 320.61 206.98 314.49 211.18 308.21 C 212.36 306.88 211.65 305.09 211.57 303.55 C 215.65 299.24 218.65 294.08 222.35 289.47 C 226.20 285.27 229.77 280.84 233.38 276.44 C 235.94 273.35 237.83 269.53 241.52 267.58 C 240.47 265.03 237.61 267.01 236.52 268.50 C 231.83 274.17 227.76 280.38 222.62 285.68 C 216.69 293.64 210.01 301.00 203.65 308.62 C 197.87 315.31 192.28 322.57 184.49 327.05 C 182.18 328.52 179.53 329.28 176.98 330.23 C 177.84 331.15 178.94 331.61 180.21 331.57 C 182.82 334.12 184.33 337.51 186.67 340.28 C 191.36 346.91 197.52 352.44 201.49 359.59 C 204.85 363.18 208.58 366.45 212.04 369.97 C 218.03 375.27 224.23 380.65 228.13 387.77 C 229.54 389.85 229.35 392.54 230.54 394.73 C 225.90 389.76 219.73 386.49 214.80 381.92 C 215.36 381.74 216.47 381.39 217.03 381.22 C 208.54 373.34 200.21 364.84 194.46 354.73 C 189.70 348.76 183.28 344.46 178.11 338.90 C 172.63 332.44 167.85 325.42 163.04 318.46 C 163.22 318.07 163.58 317.29 163.76 316.90 C 165.35 318.86 166.23 322.17 169.19 322.32 C 168.66 318.88 168.23 315.42 168.01 311.94 L 169.04 311.62 C 173.19 316.70 176.22 323.65 183.04 325.62 C 192.38 313.70 201.47 301.58 211.41 290.15 C 214.78 285.54 220.09 282.88 223.20 278.04 C 227.66 273.47 230.66 267.63 235.49 263.43 C 236.90 262.11 238.16 260.52 240.09 259.93 C 241.78 259.82 243.48 259.60 245.09 259.02 C 241.73 256.93 237.49 258.40 233.75 257.78 C 237.14 257.07 240.62 257.60 244.02 257.00 C 244.02 256.38 244.02 255.13 244.02 254.50 C 238.83 247.81 233.60 241.10 228.90 234.03 C 219.87 220.24 210.05 207.01 200.06 193.91 C 196.68 189.52 193.69 184.58 189.06 181.39 C 188.42 181.25 187.13 180.98 186.49 180.84 C 188.46 177.19 192.06 174.87 194.55 171.61 C 196.35 169.57 197.45 166.81 199.95 165.47 C 206.75 171.89 214.71 177.12 220.79 184.31 C 239.42 203.96 255.78 225.61 273.73 245.85 C 273.75 245.23 273.79 243.98 273.82 243.36 C 270.06 239.38 266.76 235.00 263.18 230.86 C 252.94 218.26 241.85 206.38 231.65 193.74 C 231.99 193.00 232.66 191.51 233.00 190.76 C 233.07 190.54 233.23 190.09 233.31 189.87 C 225.77 180.78 217.53 172.19 208.26 164.85 C 206.09 162.99 203.39 161.98 200.61 161.47 C 200.94 161.26 201.61 160.84 201.94 160.63 C 203.08 160.68 204.54 161.53 205.46 160.44 C 217.10 149.27 227.21 136.50 235.88 122.91 C 238.80 119.36 241.20 115.45 243.88 111.74 C 247.53 108.09 249.56 102.86 248.47 97.71 C 248.59 95.95 248.74 94.19 248.87 92.44 C 247.19 93.38 246.35 91.65 245.30 90.84 Z" fill="#dcdbdd" opacity="1.00" stroke="#dcdbdd" stroke-width="0.25"/>
<path d="M 270.41 89.28 C 270.04 87.82 269.64 86.38 269.63 84.87 C 278.37 93.30 285.94 102.87 293.94 112.01 C 296.73 116.16 300.48 119.50 303.92 123.09 C 307.44 127.02 310.62 131.30 314.59 134.81 C 308.19 129.72 303.36 123.05 297.34 117.55 C 293.07 114.59 289.86 110.43 286.05 106.95 C 282.42 103.61 278.96 100.07 275.68 96.37 C 273.43 93.79 271.63 90.43 268.14 89.39 L 268.35 88.03 C 269.02 88.46 269.71 88.88 270.41 89.28 Z" fill="#f4f0eb" opacity="1.00" stroke="#f4f0eb" stroke-width="0.25"/>
<path d="M 262.37 86.17 C 265.65 90.82 270.19 94.33 274.24 98.26 C 273.61 99.51 272.94 100.75 272.44 102.06 C 275.45 106.24 279.96 108.94 283.63 112.47 C 285.20 113.80 285.20 116.04 285.86 117.85 C 285.19 117.98 283.83 118.24 283.16 118.37 C 280.66 112.22 275.23 108.23 270.17 104.29 C 269.56 132.08 270.17 159.89 269.49 187.67 C 269.25 189.89 266.68 187.93 265.49 187.66 C 262.07 185.76 257.06 188.25 254.79 184.27 C 257.26 184.16 259.72 183.92 262.18 183.76 C 262.10 151.23 261.96 118.69 262.37 86.17 Z" fill="#c1bcb6" opacity="1.00" stroke="#c1bcb6" stroke-width="0.25"/>
<path d="M 244.65 92.53 C 245.77 93.19 246.89 93.83 248.06 94.43 C 246.69 97.28 244.02 99.73 244.66 103.15 C 243.31 105.25 241.23 107.26 238.65 107.63 C 238.61 107.96 238.51 108.63 238.47 108.97 C 233.07 116.93 226.55 124.01 220.16 131.16 C 217.41 134.91 213.73 137.82 210.69 141.31 C 200.62 151.71 190.77 162.39 181.38 173.44 C 169.57 187.38 158.70 202.09 147.27 216.35 C 137.31 229.07 128.17 242.51 116.96 254.21 C 115.60 254.24 114.25 254.17 112.90 253.99 C 115.20 249.54 118.76 245.86 121.82 241.93 C 131.52 229.69 141.48 217.66 151.06 205.32 C 163.26 189.49 176.05 174.14 188.76 158.71 C 200.76 144.09 215.78 132.24 227.27 117.18 C 233.01 109.55 239.49 102.43 244.27 94.12 L 244.65 92.53 Z" fill="#f4f0eb" opacity="1.00" stroke="#f4f0eb" stroke-width="0.25"/>
<path d="M 241.59 108.50 C 244.23 105.14 246.06 101.23 248.47 97.71 C 249.56 102.86 247.53 108.09 243.88 111.74 C 241.20 115.45 238.80 119.36 235.88 122.91 C 227.21 136.50 217.10 149.27 205.46 160.44 C 204.54 161.53 203.08 160.68 201.94 160.63 C 201.61 160.84 200.94 161.26 200.61 161.47 C 199.65 161.55 197.74 161.73 196.78 161.81 C 197.35 160.20 198.62 159.02 199.73 157.78 C 206.97 149.96 212.86 140.96 220.66 133.66 C 228.33 125.85 234.35 116.67 241.59 108.50 Z" fill="#c1bcb6" opacity="1.00" stroke="#c1bcb6" stroke-width="0.25"/>
<path d="M 272.44 102.06 C 272.94 100.75 273.61 99.51 274.24 98.26 C 278.25 102.09 282.08 106.10 286.18 109.83 C 292.77 115.95 298.45 122.94 304.64 129.45 C 316.39 142.54 325.67 157.57 336.93 171.05 C 345.68 182.07 353.87 193.51 362.21 204.84 C 361.68 205.16 360.63 205.81 360.10 206.13 C 353.08 196.19 345.33 186.78 337.42 177.54 C 327.83 165.79 317.96 154.28 308.47 142.46 C 305.24 138.37 301.74 134.44 297.55 131.31 C 292.92 127.70 289.36 122.97 285.87 118.31 C 285.57 118.73 284.99 119.55 284.69 119.96 C 284.16 119.45 283.65 118.92 283.16 118.37 C 283.83 118.24 285.19 117.98 285.86 117.85 C 285.20 116.04 285.20 113.80 283.63 112.47 C 279.96 108.94 275.45 106.24 272.44 102.06 Z" fill="#f4f0eb" opacity="1.00" stroke="#f4f0eb" stroke-width="0.25"/>
<path d="M 171.22 131.21 C 184.22 121.40 198.68 113.65 213.65 107.31 C 213.63 107.61 213.59 108.19 213.57 108.48 C 192.35 119.69 170.87 131.52 154.02 148.93 C 150.26 152.17 147.90 157.09 143.11 159.02 C 143.06 157.92 143.44 157.00 144.24 156.27 C 152.58 147.25 161.21 138.40 171.22 131.21 Z" fill="#343131" opacity="1.00" stroke="#343131" stroke-width="0.25"/>
<path d="M 304.46 110.31 C 305.01 109.56 305.64 108.89 306.36 108.30 C 325.42 116.50 342.92 128.00 358.88 141.21 C 367.52 149.20 376.00 157.52 382.82 167.17 C 397.90 187.63 406.90 212.21 410.36 237.30 C 409.86 237.44 408.88 237.73 408.38 237.87 C 404.88 216.01 397.73 194.61 386.27 175.62 C 377.94 162.68 367.43 151.26 355.88 141.14 C 340.07 128.86 323.30 117.42 304.46 110.31 Z" fill="#343131" opacity="1.00" stroke="#343131" stroke-width="0.25"/>
<path d="M 284.91 114.37 C 289.69 117.65 293.89 121.87 297.93 126.06 C 298.33 127.12 300.38 128.81 298.84 129.70 C 298.79 127.62 296.48 127.07 295.50 125.52 C 292.22 121.58 287.28 118.96 284.91 114.37 Z" fill="#343131" opacity="1.00" stroke="#343131" stroke-width="0.25"/>
<path d="M 200.09 121.14 C 202.25 119.93 204.27 118.48 206.43 117.27 C 207.13 119.16 205.12 120.01 204.09 121.09 C 198.30 124.76 192.27 128.04 186.44 131.65 C 176.19 138.50 166.10 145.65 156.75 153.71 C 154.04 155.68 151.66 158.79 148.04 158.89 C 148.28 157.97 148.80 157.25 149.60 156.75 C 165.16 143.23 181.81 130.76 200.09 121.14 Z" fill="#343131" opacity="1.00" stroke="#343131" stroke-width="0.25"/>
<path d="M 311.19 120.37 C 318.21 123.55 324.68 127.77 331.11 131.98 C 350.99 145.60 369.64 161.64 383.37 181.63 C 385.42 184.57 385.76 188.21 386.67 191.58 C 391.88 204.07 396.42 216.87 399.60 230.03 C 398.53 231.31 397.17 232.27 395.74 233.11 C 393.60 221.94 388.58 211.68 383.29 201.72 C 380.94 198.27 383.32 193.95 381.82 190.27 C 380.85 187.62 379.98 184.90 378.58 182.43 C 372.22 172.40 364.05 163.60 355.01 155.94 C 343.31 145.04 330.41 135.41 316.60 127.34 C 313.87 125.90 312.80 122.82 311.19 120.37 Z" fill="#dcdbdd" opacity="1.00" stroke="#dcdbdd" stroke-width="0.25"/>
<path d="M 315.17 129.27 C 320.18 130.77 324.17 134.72 328.62 137.44 C 340.29 144.77 350.30 154.33 360.02 164.02 C 367.19 170.66 373.98 178.04 378.28 186.90 C 380.97 191.88 378.03 198.16 381.35 202.85 C 387.75 213.63 391.78 225.66 393.83 237.98 C 388.92 234.81 387.75 228.27 382.76 225.30 C 375.65 219.86 371.19 211.99 366.34 204.66 C 360.25 196.47 354.88 187.74 348.20 180.00 C 341.38 172.06 337.18 162.25 330.09 154.53 L 328.72 153.71 C 329.85 152.81 330.37 154.52 331.02 155.12 C 335.20 157.80 338.96 161.07 342.76 164.24 C 354.37 175.88 363.61 189.57 372.95 203.02 C 375.87 206.76 377.00 211.50 379.78 215.32 C 381.86 217.94 380.76 221.89 383.79 223.95 C 383.76 222.79 383.31 221.90 382.44 221.30 C 381.92 215.62 379.60 210.23 376.74 205.32 C 364.01 185.00 349.57 164.97 329.61 151.15 C 326.31 149.10 325.26 145.13 322.56 142.53 C 322.42 142.16 322.14 141.43 322.00 141.07 C 325.64 141.79 328.15 145.03 331.29 146.89 C 340.36 151.72 346.65 160.11 354.33 166.71 C 361.03 173.44 367.55 180.55 372.20 188.91 C 373.44 190.88 374.21 193.15 375.73 194.95 C 375.86 194.47 376.11 193.53 376.24 193.06 C 372.73 183.97 366.28 176.47 359.71 169.45 C 350.50 160.56 341.56 151.26 331.03 143.90 C 327.36 141.30 322.70 139.78 320.20 135.82 C 318.78 133.44 316.34 131.79 315.17 129.27 Z" fill="#dcdbdd" opacity="1.00" stroke="#dcdbdd" stroke-width="0.25"/>
<path d="M 295.82 134.06 C 299.01 134.08 300.81 137.13 302.90 139.09 C 316.13 154.53 328.44 170.74 341.87 186.01 C 348.99 194.98 356.23 203.88 362.62 213.40 C 365.30 217.21 367.62 221.28 370.65 224.84 C 370.34 225.24 369.71 226.04 369.40 226.44 C 367.70 226.15 366.00 225.92 364.29 225.80 C 346.75 224.70 329.09 225.90 311.52 225.16 C 316.94 216.06 324.35 208.10 328.32 198.15 C 330.35 194.52 331.93 189.79 336.23 188.34 C 347.19 199.04 355.88 211.75 365.61 223.53 C 362.28 218.60 358.13 214.20 354.90 209.18 C 348.62 200.89 343.01 191.69 334.31 185.67 C 331.84 184.22 331.27 181.31 330.14 178.92 C 324.33 173.70 319.89 167.18 314.69 161.38 C 307.99 152.57 301.85 143.33 295.82 134.06 Z" fill="#f4f0eb" opacity="1.00" stroke="#f4f0eb" stroke-width="0.25"/>
<path d="M 171.54 167.68 C 177.16 161.62 183.59 156.31 188.54 149.62 C 191.72 151.11 187.96 153.14 188.64 155.44 C 184.65 160.42 180.44 165.26 175.80 169.65 C 174.15 170.47 172.86 168.31 171.54 167.68 Z" fill="#dcdbdd" opacity="1.00" stroke="#dcdbdd" stroke-width="0.25"/>
<path d="M 135.52 171.49 C 139.39 167.30 142.46 161.20 148.70 160.39 C 148.26 162.12 146.65 163.07 145.50 164.29 C 134.91 174.94 125.78 187.21 119.60 200.95 C 113.72 212.18 110.82 224.62 106.48 236.44 C 101.66 243.11 95.38 248.60 89.83 254.66 C 89.17 254.65 87.83 254.63 87.17 254.62 C 92.85 247.35 100.83 241.73 105.41 233.57 C 111.27 211.22 120.26 189.16 135.52 171.49 Z" fill="#343131" opacity="1.00" stroke="#343131" stroke-width="0.25"/>
<path d="M 142.98 225.94 C 159.85 204.67 175.84 182.60 194.74 163.05 C 196.54 163.69 198.50 164.15 199.95 165.47 C 197.45 166.81 196.35 169.57 194.55 171.61 C 192.06 174.87 188.46 177.19 186.49 180.84 C 185.70 180.73 184.91 180.63 184.13 180.55 C 184.64 181.31 185.19 182.04 185.92 182.62 L 184.66 182.83 C 184.95 184.35 185.84 185.65 186.58 186.99 C 186.48 187.26 186.29 187.81 186.19 188.09 C 185.58 187.49 184.97 186.90 184.35 186.32 C 174.98 198.29 165.53 210.19 156.02 222.05 C 155.03 223.22 154.21 224.51 153.49 225.86 C 149.98 225.98 146.48 226.01 142.98 225.94 Z" fill="#c1bcb6" opacity="1.00" stroke="#c1bcb6" stroke-width="0.25"/>
<path d="M 200.36 164.06 C 203.30 162.93 205.71 165.27 208.00 166.73 C 217.26 173.71 224.86 182.56 233.00 190.76 C 232.66 191.51 231.99 193.00 231.65 193.74 C 224.89 186.44 218.33 178.84 210.40 172.75 C 207.16 169.72 203.08 167.61 200.36 164.06 Z" fill="#f4f0eb" opacity="1.00" stroke="#f4f0eb" stroke-width="0.25"/>
<path d="M 184.13 180.55 C 184.91 180.63 185.70 180.73 186.49 180.84 C 187.13 180.98 188.42 181.25 189.06 181.39 C 193.69 184.58 196.68 189.52 200.06 193.91 C 210.05 207.01 219.87 220.24 228.90 234.03 C 233.60 241.10 238.83 247.81 244.02 254.50 C 243.67 254.60 242.98 254.80 242.63 254.91 C 234.62 245.91 227.62 236.08 221.14 225.94 C 213.01 213.24 203.57 201.46 194.43 189.49 C 192.04 186.75 189.87 183.11 185.92 182.62 C 185.19 182.04 184.64 181.31 184.13 180.55 Z" fill="#343131" opacity="1.00" stroke="#343131" stroke-width="0.25"/>
<path d="M 184.66 182.83 L 185.92 182.62 C 189.87 183.11 192.04 186.75 194.43 189.49 C 203.57 201.46 213.01 213.24 221.14 225.94 C 227.62 236.08 234.62 245.91 242.63 254.91 C 240.16 256.18 237.41 255.73 234.78 255.35 C 236.99 255.22 239.21 255.00 241.36 254.41 C 239.20 254.28 237.04 254.24 234.89 254.21 L 235.32 253.68 C 235.62 253.29 236.24 252.51 236.54 252.11 C 231.02 247.81 226.27 242.55 222.09 236.95 C 220.09 234.56 219.53 231.41 217.95 228.78 C 208.49 214.15 198.30 199.91 186.58 186.99 C 185.84 185.65 184.95 184.35 184.66 182.83 Z" fill="#dcdbdd" opacity="1.00" stroke="#dcdbdd" stroke-width="0.25"/>
<path d="M 326.30 191.33 C 328.08 188.82 329.45 185.85 332.16 184.19 C 332.23 185.91 333.51 186.40 334.91 186.60 C 335.24 187.04 335.90 187.90 336.23 188.34 C 331.93 189.79 330.35 194.52 328.32 198.15 C 324.35 208.10 316.94 216.06 311.52 225.16 C 329.09 225.90 346.75 224.70 364.29 225.80 C 343.68 226.27 323.05 225.78 302.44 226.02 C 302.28 224.53 303.61 223.56 304.34 222.44 C 312.07 212.37 319.07 201.76 326.30 191.33 Z" fill="#c1bcb6" opacity="1.00" stroke="#c1bcb6" stroke-width="0.25"/>
<path d="M 184.35 186.32 C 184.97 186.90 185.58 187.49 186.19 188.09 C 196.33 199.82 205.07 212.67 213.90 225.40 C 213.44 225.50 212.53 225.71 212.07 225.82 C 192.55 225.85 173.01 225.76 153.49 225.86 C 154.21 224.51 155.03 223.22 156.02 222.05 C 165.53 210.19 174.98 198.29 184.35 186.32 Z" fill="#f4f0eb" opacity="1.00" stroke="#f4f0eb" stroke-width="0.25"/>
<path d="M 362.21 204.84 C 366.86 211.37 370.68 218.72 376.99 223.89 C 378.57 225.06 379.67 226.64 379.89 228.63 C 378.55 229.26 377.14 229.55 375.68 229.39 C 371.65 220.93 365.31 213.86 360.10 206.13 C 360.63 205.81 361.68 205.16 362.21 204.84 Z" fill="#c1bcb6" opacity="1.00" stroke="#c1bcb6" stroke-width="0.25"/>
<path d="M 370.65 224.84 C 374.31 229.51 377.12 234.78 379.97 239.97 C 377.66 239.50 376.73 237.31 375.55 235.56 C 373.98 233.07 371.95 230.94 370.02 228.74 C 351.35 228.45 332.67 228.78 314.00 228.60 C 312.02 228.57 310.06 228.72 308.10 228.91 C 303.90 235.03 300.06 241.53 294.69 246.72 C 291.30 250.09 286.81 251.88 282.54 253.84 L 281.68 253.78 C 288.86 245.88 294.72 236.79 301.04 228.31 C 323.60 227.70 346.20 228.11 368.78 228.11 C 368.93 227.70 369.25 226.86 369.40 226.44 C 369.71 226.04 370.34 225.24 370.65 224.84 Z" fill="#c1bcb6" opacity="1.00" stroke="#c1bcb6" stroke-width="0.25"/>
<path d="M 140.05 229.98 C 140.78 229.12 141.53 227.80 142.89 228.06 C 164.67 228.30 186.46 227.85 208.23 228.37 C 191.51 228.97 174.77 228.45 158.05 228.64 C 154.93 228.91 150.70 227.43 148.77 230.74 C 143.36 238.73 136.91 245.97 131.70 254.10 C 127.71 254.62 123.63 252.76 119.79 254.43 L 119.98 253.08 C 120.77 253.10 122.33 253.14 123.12 253.16 C 123.53 251.98 123.96 250.79 124.76 249.81 C 129.72 243.10 135.06 236.67 140.05 229.98 Z" fill="#c1bcb6" opacity="1.00" stroke="#c1bcb6" stroke-width="0.25"/>
<path d="M 208.23 228.37 C 210.77 228.34 213.31 228.42 215.84 228.68 C 215.41 228.84 214.53 229.18 214.09 229.35 C 218.70 239.26 227.10 246.76 235.32 253.68 L 234.89 254.21 C 200.49 253.83 166.10 253.79 131.70 254.10 C 136.91 245.97 143.36 238.73 148.77 230.74 C 150.70 227.43 154.93 228.91 158.05 228.64 C 174.77 228.45 191.51 228.97 208.23 228.37 Z" fill="#f4f0eb" opacity="1.00" stroke="#f4f0eb" stroke-width="0.25"/>
<path d="M 214.09 229.35 C 214.53 229.18 215.41 228.84 215.84 228.68 C 216.49 229.42 217.14 230.18 217.79 230.94 C 217.83 230.40 217.91 229.32 217.95 228.78 C 219.53 231.41 220.09 234.56 222.09 236.95 C 226.27 242.55 231.02 247.81 236.54 252.11 C 236.24 252.51 235.62 253.29 235.32 253.68 C 227.10 246.76 218.70 239.26 214.09 229.35 Z" fill="#c1bcb6" opacity="1.00" stroke="#c1bcb6" stroke-width="0.25"/>
<path d="M 308.10 228.91 C 310.06 228.72 312.02 228.57 314.00 228.60 C 332.67 228.78 351.35 228.45 370.02 228.74 C 371.95 230.94 373.98 233.07 375.55 235.56 C 376.73 237.31 377.66 239.50 379.97 239.97 C 382.81 244.45 385.91 248.75 388.98 253.08 C 389.10 253.60 389.34 254.65 389.46 255.18 C 392.27 254.96 395.08 254.77 397.89 254.63 C 396.84 251.92 396.24 248.98 394.62 246.53 C 395.44 244.99 395.54 242.40 397.87 242.59 C 399.64 244.02 401.58 245.35 402.96 247.20 C 403.57 249.15 404.10 251.22 405.93 252.42 C 404.38 252.53 403.02 253.19 401.78 254.06 C 404.17 255.84 407.14 253.88 409.80 254.71 L 410.82 255.08 C 411.84 255.54 412.91 255.75 414.04 255.71 C 421.14 255.80 428.26 255.38 435.35 255.88 L 435.04 257.01 C 434.77 257.14 434.23 257.40 433.95 257.53 C 417.63 257.46 401.29 257.43 384.97 257.78 C 345.12 257.55 305.27 257.98 265.43 257.48 C 265.54 260.18 265.56 262.90 265.45 265.61 C 266.69 265.99 267.31 264.93 267.99 264.11 C 274.96 270.65 280.26 278.75 287.20 285.31 C 286.25 287.05 284.69 288.26 283.10 289.36 C 280.31 286.31 277.84 282.98 275.04 279.93 C 271.79 276.30 269.50 271.88 265.79 268.67 L 265.59 269.86 C 265.04 265.02 262.86 259.03 267.01 255.20 C 297.68 255.46 328.35 255.38 359.02 255.34 C 368.86 255.22 378.72 255.54 388.55 255.05 L 389.15 253.90 C 354.78 253.99 320.41 253.72 286.04 254.08 C 285.17 254.02 283.42 253.90 282.54 253.84 C 286.81 251.88 291.30 250.09 294.69 246.72 C 300.06 241.53 303.90 235.03 308.10 228.91 Z" fill="#f4f0eb" opacity="1.00" stroke="#f4f0eb" stroke-width="0.25"/>
<path d="M 375.68 229.39 C 377.14 229.55 378.55 229.26 379.89 228.63 C 383.68 236.60 389.52 243.24 394.82 250.21 C 395.67 251.50 396.98 252.76 396.71 254.47 C 395.21 253.99 393.09 254.50 392.10 253.01 C 387.28 246.77 382.89 240.22 378.21 233.89 C 377.15 232.52 376.29 231.00 375.68 229.39 Z" fill="#f4f0eb" opacity="1.00" stroke="#f4f0eb" stroke-width="0.25"/>
<path d="M 399.60 230.03 C 400.57 233.30 400.58 236.87 402.12 239.95 C 406.19 244.74 411.52 248.86 413.67 255.00 C 412.96 255.02 411.53 255.06 410.82 255.08 L 409.80 254.71 C 410.38 254.68 411.54 254.61 412.11 254.58 C 411.35 253.47 410.57 252.38 409.77 251.31 C 409.67 250.72 409.48 249.55 409.38 248.96 C 405.20 246.49 402.24 242.59 398.38 239.73 C 396.03 238.36 396.38 235.38 395.74 233.11 C 397.17 232.27 398.53 231.31 399.60 230.03 Z" fill="#c1bcb6" opacity="1.00" stroke="#c1bcb6" stroke-width="0.25"/>
<path d="M 387.27 236.17 C 391.03 237.92 393.96 241.05 397.87 242.59 C 395.54 242.40 395.44 244.99 394.62 246.53 C 391.99 243.28 387.96 240.40 387.27 236.17 Z" fill="#c1bcb6" opacity="1.00" stroke="#c1bcb6" stroke-width="0.25"/>
<path d="M 404.63 238.39 C 407.31 238.49 409.01 240.93 411.51 241.46 C 415.09 245.77 419.58 249.38 422.59 254.12 C 420.72 254.07 418.24 255.02 416.95 253.14 C 412.54 248.49 408.45 243.52 404.63 238.39 Z" fill="#c1bcb6" opacity="1.00" stroke="#c1bcb6" stroke-width="0.25"/>
<path d="M 97.32 254.82 C 101.67 250.69 105.03 245.60 109.43 241.49 C 108.07 246.42 105.92 251.89 101.01 254.25 C 107.23 255.37 113.76 254.26 120.09 255.14 C 158.32 255.70 196.55 255.25 234.78 255.35 C 237.41 255.73 240.16 256.18 242.63 254.91 C 242.98 254.80 243.67 254.60 244.02 254.50 C 244.02 255.13 244.02 256.38 244.02 257.00 C 240.62 257.60 237.14 257.07 233.75 257.78 C 203.82 257.79 173.89 257.66 143.95 257.68 C 123.53 257.74 103.10 257.14 82.68 257.72 C 82.26 257.75 81.41 257.81 80.99 257.84 C 80.71 253.78 85.17 256.50 87.17 254.62 C 87.83 254.63 89.17 254.65 89.83 254.66 C 92.08 255.89 95.09 256.25 97.32 254.82 Z" fill="#f4f0eb" opacity="1.00" stroke="#f4f0eb" stroke-width="0.25"/>
<path d="M 273.07 254.41 C 275.75 250.24 279.18 246.63 282.00 242.56 C 282.84 243.77 283.67 244.98 284.50 246.20 C 282.27 248.82 280.27 251.63 278.02 254.24 C 276.37 254.30 274.72 254.36 273.07 254.41 Z" fill="#f4f0eb" opacity="1.00" stroke="#f4f0eb" stroke-width="0.25"/>
<path d="M 82.68 257.72 C 103.10 257.14 123.53 257.74 143.95 257.68 C 173.89 257.66 203.82 257.79 233.75 257.78 C 237.49 258.40 241.73 256.93 245.09 259.02 C 243.48 259.60 241.78 259.82 240.09 259.93 C 204.04 259.89 167.99 259.69 131.94 259.93 C 132.22 262.12 132.94 264.21 134.13 266.07 C 136.84 270.97 139.74 275.77 142.83 280.44 C 143.33 281.84 144.90 281.36 146.02 281.52 C 169.31 281.92 192.62 281.80 215.91 281.80 C 221.05 276.82 225.73 271.40 230.29 265.88 C 231.60 264.40 233.25 262.13 235.49 263.43 C 230.66 267.63 227.66 273.47 223.20 278.04 C 220.09 282.88 214.78 285.54 211.41 290.15 C 201.47 301.58 192.38 313.70 183.04 325.62 C 176.22 323.65 173.19 316.70 169.04 311.62 C 164.57 306.27 161.39 299.79 156.16 295.12 C 157.75 301.34 161.53 306.84 165.54 311.76 C 165.67 312.82 165.80 313.88 165.92 314.94 C 164.67 314.74 163.87 313.81 163.20 312.82 C 161.72 310.08 160.02 307.46 158.24 304.90 C 154.30 298.92 151.81 291.72 145.97 287.21 C 144.92 288.05 143.87 288.90 142.82 289.74 C 146.92 294.40 149.38 300.17 152.96 305.20 C 155.92 309.92 159.81 313.94 163.04 318.46 C 167.85 325.42 172.63 332.44 178.11 338.90 C 183.28 344.46 189.70 348.76 194.46 354.73 C 200.21 364.84 208.54 373.34 217.03 381.22 C 216.47 381.39 215.36 381.74 214.80 381.92 C 219.73 386.49 225.90 389.76 230.54 394.73 C 229.35 392.54 229.54 389.85 228.13 387.77 C 224.23 380.65 218.03 375.27 212.04 369.97 C 208.58 366.45 204.85 363.18 201.49 359.59 C 197.52 352.44 191.36 346.91 186.67 340.28 C 184.33 337.51 182.82 334.12 180.21 331.57 C 180.39 330.94 180.76 329.69 180.94 329.07 C 182.36 332.04 184.10 334.86 186.45 337.19 C 195.14 346.05 201.41 356.97 210.49 365.47 C 214.61 369.69 218.93 373.72 222.78 378.20 C 228.70 383.50 234.25 389.21 239.73 394.97 C 242.86 399.08 246.85 402.37 250.51 405.98 C 250.89 405.04 251.08 404.07 251.09 403.07 C 250.67 374.94 251.29 346.78 250.70 318.66 C 254.21 318.30 257.75 318.37 261.28 318.27 L 262.22 318.47 C 261.94 350.31 262.18 382.15 262.13 413.99 C 262.11 416.62 262.20 419.25 262.37 421.88 C 264.91 417.66 267.82 413.65 270.91 409.82 C 276.08 403.09 281.75 396.77 287.36 390.43 C 302.21 371.29 317.63 352.61 332.24 333.29 C 345.62 316.81 359.13 300.41 371.81 283.37 C 343.97 283.14 316.12 283.56 288.29 283.02 C 299.80 297.44 311.10 312.04 322.65 326.43 C 324.38 328.86 327.17 329.99 329.69 331.37 C 327.92 331.78 325.81 331.79 324.46 330.38 C 319.65 325.90 315.78 320.55 311.54 315.55 C 303.20 305.65 295.61 295.15 287.20 285.31 C 280.26 278.75 274.96 270.65 267.99 264.11 C 267.31 264.93 266.69 265.99 265.45 265.61 C 265.56 262.90 265.54 260.18 265.43 257.48 C 305.27 257.98 345.12 257.55 384.97 257.78 C 401.29 257.43 417.63 257.46 433.95 257.53 C 434.22 257.82 434.76 258.39 435.03 258.68 C 432.60 259.24 429.20 258.27 428.05 261.19 C 423.35 269.55 417.88 277.50 413.65 286.09 C 413.50 279.93 418.13 275.04 420.25 269.50 C 422.06 266.15 424.46 263.12 425.86 259.55 C 423.05 259.66 420.24 259.72 417.43 259.66 C 417.02 261.10 416.61 262.53 416.21 263.97 C 414.87 266.46 412.82 268.63 412.28 271.49 C 410.84 277.70 409.35 283.90 407.77 290.08 C 397.04 325.62 374.90 357.70 345.41 380.29 C 337.53 386.03 329.22 391.24 320.47 395.56 C 315.71 397.90 310.60 399.43 305.78 401.62 C 299.23 411.82 290.66 420.47 283.22 430.00 C 276.06 439.54 268.75 448.96 261.79 458.66 C 261.27 458.57 260.21 458.39 259.69 458.31 C 257.73 453.63 254.05 449.98 251.18 445.87 C 241.58 433.74 232.37 421.30 222.99 408.99 C 221.99 407.68 220.67 406.66 219.37 405.67 C 222.95 404.02 224.73 408.51 226.97 410.41 C 235.72 425.31 247.56 438.03 257.92 451.77 C 259.61 449.63 261.35 447.36 261.72 444.57 C 260.97 443.90 260.22 443.23 259.47 442.57 C 259.39 442.12 259.23 441.21 259.15 440.76 C 260.02 433.54 259.64 426.24 259.74 418.99 C 259.83 386.01 259.87 353.04 259.84 320.07 C 257.53 320.07 255.23 320.06 252.93 320.05 C 253.08 350.60 252.83 381.17 253.18 411.72 C 249.10 405.89 243.17 401.83 238.56 396.48 C 236.45 394.20 234.43 391.83 231.99 389.90 C 233.05 392.05 233.82 394.33 233.98 396.74 C 232.10 396.68 231.39 397.79 232.67 399.23 C 236.22 405.65 240.33 411.72 243.99 418.06 C 245.45 420.90 248.59 423.25 251.92 422.59 C 248.89 416.46 244.40 411.14 239.35 406.58 C 237.34 404.32 236.18 401.44 234.59 398.89 L 234.90 397.83 C 239.61 401.61 242.53 407.08 246.70 411.40 C 249.55 414.11 250.38 418.09 252.61 421.22 C 252.49 424.83 252.23 428.44 252.33 432.06 C 253.54 433.02 254.54 434.20 255.42 435.47 C 255.51 435.80 255.69 436.44 255.77 436.76 C 253.32 433.35 249.35 431.58 246.61 428.45 C 243.05 424.42 238.70 421.15 235.25 417.02 C 233.67 414.33 231.31 412.29 229.23 410.00 C 228.43 408.52 227.77 406.98 227.28 405.38 C 224.87 403.02 222.57 400.53 220.78 397.66 C 219.91 398.54 218.92 398.83 217.80 398.52 C 217.68 397.31 217.45 396.13 217.11 394.98 C 216.49 393.77 215.74 392.64 215.02 391.50 C 203.53 391.80 192.08 387.85 182.55 381.48 C 174.43 376.10 166.34 370.54 159.37 363.67 C 155.38 359.64 150.91 356.10 147.17 351.82 C 141.01 344.98 136.96 336.63 132.68 328.57 C 128.30 320.65 126.38 311.73 123.96 303.10 C 120.95 294.00 119.18 284.55 116.34 275.40 C 116.86 275.42 117.92 275.46 118.45 275.48 C 119.28 277.27 119.86 279.16 120.20 281.10 C 122.63 292.55 126.56 303.60 129.72 314.85 C 130.94 319.16 132.36 323.45 134.57 327.38 C 140.26 338.16 145.91 349.52 155.62 357.31 C 164.56 365.87 174.14 373.77 184.54 380.51 C 193.41 386.73 204.22 388.97 214.59 391.37 C 213.28 388.33 210.98 385.91 208.84 383.45 C 202.62 382.67 196.41 381.48 190.51 379.31 C 184.25 376.65 179.29 371.86 174.00 367.73 C 164.82 360.42 155.98 352.39 149.63 342.42 C 143.37 332.67 136.87 322.79 133.66 311.54 C 131.49 302.01 128.37 292.73 125.53 283.39 C 124.63 280.86 124.16 277.83 121.60 276.41 C 121.10 274.85 120.63 273.28 120.15 271.72 C 118.89 267.58 116.67 263.82 115.18 259.77 C 114.29 259.74 112.50 259.68 111.61 259.65 C 111.73 262.76 111.89 265.87 112.16 268.98 C 113.53 284.67 116.97 300.10 122.13 314.98 C 125.02 324.94 130.47 333.82 135.23 342.95 C 141.23 352.56 149.36 360.60 157.53 368.38 C 167.92 377.61 179.17 385.98 191.58 392.30 C 198.04 395.63 205.36 397.29 212.60 397.25 C 210.04 399.14 206.67 397.97 203.73 398.30 C 205.44 399.22 207.24 400.03 208.69 401.37 C 207.99 401.28 206.61 401.10 205.92 401.01 C 193.72 395.29 181.52 389.31 170.64 381.30 C 157.09 371.73 145.19 359.90 135.27 346.62 C 132.46 342.35 130.33 337.68 127.73 333.27 C 119.80 319.24 116.19 303.36 112.15 287.90 C 110.77 283.76 112.11 278.63 108.73 275.31 C 104.41 270.28 100.10 265.22 95.48 260.46 C 94.44 259.20 92.60 259.77 91.19 259.54 C 94.70 264.71 99.28 269.15 102.19 274.73 C 103.33 276.81 104.74 278.72 106.16 280.61 C 106.27 281.15 106.49 282.22 106.59 282.76 C 106.02 281.29 105.13 279.98 104.00 278.88 C 98.27 272.66 93.37 265.70 87.60 259.52 C 85.88 259.48 84.16 259.37 82.45 259.25 L 82.68 257.72 Z" fill="#343131" opacity="1.00" stroke="#343131" stroke-width="0.25"/>
<path d="M 98.18 259.56 C 101.60 259.74 105.03 259.86 108.46 259.73 C 109.58 264.01 109.45 268.49 109.73 272.88 C 105.93 268.77 102.24 264.54 98.37 260.50 C 98.33 260.27 98.23 259.80 98.18 259.56 Z" fill="#dcdbdd" opacity="1.00" stroke="#dcdbdd" stroke-width="0.25"/>
<path d="M 390.55 263.53 C 392.70 261.38 395.48 257.79 398.80 259.10 C 396.72 260.69 395.86 263.23 394.10 265.10 C 389.00 272.02 383.42 278.56 378.28 285.45 C 367.70 300.63 355.70 314.77 344.23 329.27 C 334.01 341.71 324.33 354.59 313.89 366.85 C 303.46 378.73 293.96 391.42 283.57 403.35 C 283.29 402.95 282.71 402.15 282.42 401.75 C 282.54 400.79 282.67 399.84 282.82 398.90 C 292.33 387.68 301.04 375.80 310.39 364.44 C 330.29 339.62 350.76 315.27 370.09 290.01 C 376.60 280.96 383.41 272.10 390.55 263.53 Z" fill="#f4f0eb" opacity="1.00" stroke="#f4f0eb" stroke-width="0.25"/>
<path d="M 411.59 259.75 C 412.60 259.70 413.60 259.65 414.62 259.61 C 412.95 266.82 409.02 273.32 407.78 280.68 L 407.64 280.67 C 407.26 280.64 406.48 280.57 406.10 280.54 C 405.20 281.96 405.30 283.70 405.05 285.30 L 403.89 285.34 C 403.62 283.76 403.36 282.19 403.16 280.61 C 405.16 273.45 406.63 265.58 411.59 259.75 Z" fill="#c1bcb6" opacity="1.00" stroke="#c1bcb6" stroke-width="0.25"/>
<path d="M 417.43 259.66 C 420.24 259.72 423.05 259.66 425.86 259.55 C 424.46 263.12 422.06 266.15 420.25 269.50 C 418.71 267.81 416.91 266.22 416.21 263.97 C 416.61 262.53 417.02 261.10 417.43 259.66 Z" fill="#f4f0eb" opacity="1.00" stroke="#f4f0eb" stroke-width="0.25"/>
<path d="M 111.61 259.65 C 112.50 259.68 114.29 259.74 115.18 259.77 C 116.67 263.82 118.89 267.58 120.15 271.72 C 118.21 272.38 116.26 273.01 114.30 273.63 C 114.36 271.67 114.32 269.71 114.09 267.76 C 113.61 268.07 112.64 268.68 112.16 268.98 C 111.89 265.87 111.73 262.76 111.61 259.65 Z" fill="#c1bcb6" opacity="1.00" stroke="#c1bcb6" stroke-width="0.25"/>
<path d="M 117.35 259.76 C 120.89 259.92 124.43 259.82 127.97 259.99 L 127.83 260.81 C 126.23 260.72 124.63 260.72 123.03 260.79 C 124.32 263.18 124.45 266.15 126.64 268.01 C 126.90 267.57 127.42 266.68 127.68 266.24 C 129.00 267.82 129.78 269.74 129.46 271.83 C 130.93 271.57 132.93 272.49 133.89 270.96 C 137.45 276.36 140.95 281.80 144.85 286.96 C 144.06 287.94 143.20 288.86 142.26 289.71 C 139.63 287.01 137.13 284.18 134.52 281.47 C 130.29 277.33 125.41 273.64 122.45 268.41 C 120.80 265.49 118.63 262.87 117.35 259.76 Z" fill="#c1bcb6" opacity="1.00" stroke="#c1bcb6" stroke-width="0.25"/>
<path d="M 131.94 259.93 C 167.99 259.69 204.04 259.89 240.09 259.93 C 238.16 260.52 236.90 262.11 235.49 263.43 C 233.25 262.13 231.60 264.40 230.29 265.88 C 230.23 265.46 230.11 264.63 230.05 264.21 C 229.24 264.54 228.44 264.89 227.64 265.25 C 224.74 265.31 221.90 264.61 219.00 264.64 C 191.32 264.75 163.62 264.59 135.95 264.80 C 135.49 265.11 134.58 265.75 134.13 266.07 C 132.94 264.21 132.22 262.12 131.94 259.93 Z" fill="#c1bcb6" opacity="1.00" stroke="#c1bcb6" stroke-width="0.25"/>
<path d="M 268.00 260.21 C 269.85 259.29 272.03 260.01 274.02 259.86 C 312.98 259.88 351.97 259.62 390.92 260.08 C 389.04 261.82 387.42 263.80 386.04 265.96 L 385.90 265.84 C 383.49 263.56 379.88 264.95 376.93 264.69 C 344.61 264.82 312.28 264.53 279.96 264.72 C 277.75 265.64 274.81 264.12 273.09 265.90 C 271.24 264.14 269.53 262.25 268.00 260.21 Z" fill="#c1bcb6" opacity="1.00" stroke="#c1bcb6" stroke-width="0.25"/>
<path d="M 388.65 280.87 C 391.44 273.21 398.87 268.13 400.72 260.08 C 399.38 266.09 396.47 271.61 394.61 277.47 C 390.23 288.44 387.30 300.02 381.53 310.41 C 373.92 325.74 363.78 339.71 352.27 352.34 C 345.50 359.30 337.86 365.35 330.15 371.23 C 328.44 372.56 326.54 373.62 324.62 374.62 C 323.77 375.98 323.01 377.88 321.10 377.83 C 322.87 374.86 325.68 372.57 327.61 369.64 C 331.86 366.82 335.34 362.97 339.59 360.19 C 338.97 359.54 338.35 358.90 337.72 358.28 C 335.18 360.39 333.09 363.06 330.31 364.87 C 335.70 359.64 340.27 353.69 344.74 347.68 C 349.81 338.58 355.69 329.96 360.91 320.94 C 365.44 314.51 368.35 307.15 372.39 300.44 C 376.33 294.83 380.38 289.30 384.83 284.09 C 381.73 291.29 379.75 299.00 375.73 305.80 C 371.56 314.62 366.16 322.75 361.09 331.06 C 358.11 336.22 354.53 341.01 350.62 345.50 C 347.03 349.42 343.85 353.81 339.37 356.81 C 339.97 357.42 340.60 358.02 341.24 358.61 C 350.91 349.61 358.95 339.00 365.73 327.69 C 372.25 317.20 378.99 306.69 383.32 295.06 C 385.39 290.44 386.89 285.61 388.65 280.87 Z" fill="#c1bcb6" opacity="1.00" stroke="#c1bcb6" stroke-width="0.25"/>
<path d="M 403.56 260.38 C 405.06 259.96 406.60 259.70 408.17 259.94 C 399.95 274.34 399.20 291.63 391.32 306.19 C 390.36 304.21 390.30 302.09 390.91 300.02 C 390.63 299.60 390.08 298.76 389.80 298.35 L 389.60 298.05 C 394.10 285.44 398.98 272.96 403.56 260.38 Z" fill="#c1bcb6" opacity="1.00" stroke="#c1bcb6" stroke-width="0.25"/>
<path d="M 123.03 260.79 C 124.63 260.72 126.23 260.72 127.83 260.81 C 129.44 264.43 131.72 267.67 133.89 270.96 C 132.93 272.49 130.93 271.57 129.46 271.83 C 129.78 269.74 129.00 267.82 127.68 266.24 C 127.42 266.68 126.90 267.57 126.64 268.01 C 124.45 266.15 124.32 263.18 123.03 260.79 Z" fill="#dcdbdd" opacity="1.00" stroke="#dcdbdd" stroke-width="0.25"/>
<path d="M 227.64 265.25 C 228.44 264.89 229.24 264.54 230.05 264.21 C 230.11 264.63 230.23 265.46 230.29 265.88 C 225.73 271.40 221.05 276.82 215.91 281.80 C 192.62 281.80 169.31 281.92 146.02 281.52 C 144.90 281.36 143.33 281.84 142.83 280.44 C 139.74 275.77 136.84 270.97 134.13 266.07 C 134.58 265.75 135.49 265.11 135.95 264.80 C 163.62 264.59 191.32 264.75 219.00 264.64 C 221.90 264.61 224.74 265.31 227.64 265.25 Z" fill="#f4f0eb" opacity="1.00" stroke="#f4f0eb" stroke-width="0.25"/>
<path d="M 412.28 271.49 C 412.82 268.63 414.87 266.46 416.21 263.97 C 416.91 266.22 418.71 267.81 420.25 269.50 C 418.13 275.04 413.50 279.93 413.65 286.09 C 413.65 286.46 413.66 287.20 413.67 287.57 C 411.52 288.10 410.20 290.94 407.77 290.08 C 409.35 283.90 410.84 277.70 412.28 271.49 Z" fill="#c1bcb6" opacity="1.00" stroke="#c1bcb6" stroke-width="0.25"/>
<path d="M 273.09 265.90 C 274.81 264.12 277.75 265.64 279.96 264.72 C 312.28 264.53 344.61 264.82 376.93 264.69 C 379.88 264.95 383.49 263.56 385.90 265.84 C 381.50 271.03 377.34 276.41 373.17 281.78 C 344.22 281.79 315.26 281.85 286.32 281.55 C 281.54 276.64 277.64 270.99 273.09 265.90 Z" fill="#f4f0eb" opacity="1.00" stroke="#f4f0eb" stroke-width="0.25"/>
<path d="M 236.52 268.50 C 237.61 267.01 240.47 265.03 241.52 267.58 C 237.83 269.53 235.94 273.35 233.38 276.44 C 229.77 280.84 226.20 285.27 222.35 289.47 C 218.65 294.08 215.65 299.24 211.57 303.55 C 203.95 312.24 196.56 321.40 186.94 327.99 C 187.28 328.52 187.97 329.57 188.32 330.09 C 194.56 336.09 200.23 342.64 205.66 349.39 C 214.54 359.49 222.81 370.13 232.11 379.87 C 236.73 384.67 241.97 389.08 245.44 394.83 C 229.41 381.08 215.83 364.77 202.38 348.54 C 198.08 343.77 193.80 338.96 189.93 333.83 C 188.30 331.43 186.84 328.84 184.49 327.05 C 192.28 322.57 197.87 315.31 203.65 308.62 C 210.01 301.00 216.69 293.64 222.62 285.68 C 227.76 280.38 231.83 274.17 236.52 268.50 Z" fill="#343131" opacity="1.00" stroke="#343131" stroke-width="0.25"/>
<path d="M 112.16 268.98 C 112.64 268.68 113.61 268.07 114.09 267.76 C 114.32 269.71 114.36 271.67 114.30 273.63 C 116.26 273.01 118.21 272.38 120.15 271.72 C 120.63 273.28 121.10 274.85 121.60 276.41 C 124.16 277.83 124.63 280.86 125.53 283.39 C 128.37 292.73 131.49 302.01 133.66 311.54 C 136.87 322.79 143.37 332.67 149.63 342.42 C 155.98 352.39 164.82 360.42 174.00 367.73 C 179.29 371.86 184.25 376.65 190.51 379.31 C 196.41 381.48 202.62 382.67 208.84 383.45 C 210.98 385.91 213.28 388.33 214.59 391.37 C 204.22 388.97 193.41 386.73 184.54 380.51 C 174.14 373.77 164.56 365.87 155.62 357.31 C 145.91 349.52 140.26 338.16 134.57 327.38 C 132.36 323.45 130.94 319.16 129.72 314.85 C 126.56 303.60 122.63 292.55 120.20 281.10 C 119.86 279.16 119.28 277.27 118.45 275.48 C 117.92 275.46 116.86 275.42 116.34 275.40 C 119.18 284.55 120.95 294.00 123.96 303.10 C 126.38 311.73 128.30 320.65 132.68 328.57 C 136.96 336.63 141.01 344.98 147.17 351.82 C 150.91 356.10 155.38 359.64 159.37 363.67 C 166.34 370.54 174.43 376.10 182.55 381.48 C 192.08 387.85 203.53 391.80 215.02 391.50 C 215.74 392.64 216.49 393.77 217.11 394.98 C 217.12 395.46 217.13 396.43 217.14 396.91 C 215.62 396.98 214.10 397.07 212.60 397.25 C 205.36 397.29 198.04 395.63 191.58 392.30 C 179.17 385.98 167.92 377.61 157.53 368.38 C 149.36 360.60 141.23 352.56 135.23 342.95 C 130.47 333.82 125.02 324.94 122.13 314.98 C 116.97 300.10 113.53 284.67 112.16 268.98 Z" fill="#dcdbdd" opacity="1.00" stroke="#dcdbdd" stroke-width="0.25"/>
<path d="M 265.79 268.67 C 269.50 271.88 271.79 276.30 275.04 279.93 C 277.84 282.98 280.31 286.31 283.10 289.36 C 295.05 304.48 308.04 318.74 321.37 332.64 C 322.06 333.32 322.54 334.13 322.78 335.08 C 319.78 333.64 317.49 331.16 315.14 328.87 C 304.81 317.87 294.59 306.74 285.11 294.99 C 278.21 286.92 271.38 278.78 265.59 269.86 L 265.79 268.67 Z" fill="#343131" opacity="1.00" stroke="#343131" stroke-width="0.25"/>
<path d="M 124.19 274.23 C 128.67 279.03 134.38 282.57 138.15 288.03 C 145.16 295.03 149.19 304.22 154.78 312.27 C 161.60 324.06 169.66 335.11 178.56 345.41 C 182.79 350.08 188.36 353.84 191.25 359.52 L 192.64 360.15 L 192.40 358.32 C 198.90 363.25 203.12 370.45 208.58 376.43 C 197.19 373.16 185.70 368.35 177.17 359.87 C 168.23 350.02 158.30 340.78 151.87 328.98 C 148.17 323.03 144.85 316.74 139.71 311.87 C 139.61 311.51 139.42 310.80 139.32 310.44 C 139.02 311.23 138.59 311.98 138.49 312.84 C 144.78 320.64 149.75 329.39 155.15 337.81 C 159.72 343.49 164.25 349.29 169.78 354.10 C 174.00 357.95 177.02 363.04 181.89 366.19 C 189.00 370.93 196.96 374.10 204.70 377.62 C 205.49 379.15 206.65 380.38 208.26 381.06 L 208.55 382.63 C 203.33 381.47 198.29 379.62 193.10 378.33 C 186.68 376.76 182.01 371.77 176.90 367.93 C 169.31 361.65 161.44 355.47 155.56 347.45 C 147.99 336.61 141.00 325.26 135.96 313.00 C 134.12 303.96 131.25 295.19 128.45 286.41 C 127.54 282.18 126.06 278.12 124.19 274.23 Z" fill="#dcdbdd" opacity="1.00" stroke="#dcdbdd" stroke-width="0.25"/>
<path d="M 406.10 280.54 C 406.48 280.57 407.26 280.64 407.64 280.67 C 397.39 324.71 368.70 364.17 329.96 387.50 C 324.38 390.46 319.06 394.28 312.87 395.81 C 311.88 397.21 310.52 397.85 308.81 397.72 C 310.98 395.27 312.19 391.77 315.27 390.27 C 347.22 373.76 373.24 346.59 389.67 314.70 C 395.83 304.05 399.77 292.39 403.16 280.61 C 403.36 282.19 403.62 283.76 403.89 285.34 L 405.05 285.30 C 405.30 283.70 405.20 281.96 406.10 280.54 Z" fill="#dcdbdd" opacity="1.00" stroke="#dcdbdd" stroke-width="0.25"/>
<path d="M 146.84 283.09 C 169.15 283.26 191.50 283.45 213.83 283.26 C 202.60 296.11 192.32 309.78 182.03 323.39 C 180.44 322.58 179.22 321.27 178.05 319.97 C 170.61 311.31 165.24 301.02 157.10 292.95 C 153.97 289.36 150.66 285.95 146.84 283.09 Z" fill="#f4f0eb" opacity="1.00" stroke="#f4f0eb" stroke-width="0.25"/>
<path d="M 288.29 283.02 C 316.12 283.56 343.97 283.14 371.81 283.37 C 359.13 300.41 345.62 316.81 332.24 333.29 C 331.39 332.63 330.56 331.98 329.69 331.37 C 327.17 329.99 324.38 328.86 322.65 326.43 C 311.10 312.04 299.80 297.44 288.29 283.02 Z" fill="#f4f0eb" opacity="1.00" stroke="#f4f0eb" stroke-width="0.25"/>
<path d="M 134.33 287.17 C 136.24 287.62 137.06 289.59 138.13 291.02 C 141.97 297.09 144.43 303.91 148.17 310.04 C 155.34 321.86 163.37 333.15 171.97 343.98 C 175.68 348.88 180.36 352.90 184.42 357.50 C 185.67 358.87 187.43 359.60 188.84 360.79 C 183.71 359.32 180.37 354.88 176.54 351.47 C 171.74 347.23 168.01 341.99 164.18 336.90 C 157.44 327.88 150.83 318.73 145.06 309.05 C 142.54 304.42 140.62 299.49 138.18 294.83 C 136.90 292.27 135.02 289.98 134.33 287.17 Z" fill="#343131" opacity="1.00" stroke="#343131" stroke-width="0.25"/>
<path d="M 142.82 289.74 C 143.87 288.90 144.92 288.05 145.97 287.21 C 151.81 291.72 154.30 298.92 158.24 304.90 C 160.02 307.46 161.72 310.08 163.20 312.82 C 163.31 314.19 163.50 315.55 163.76 316.90 C 163.58 317.29 163.22 318.07 163.04 318.46 C 159.81 313.94 155.92 309.92 152.96 305.20 C 149.38 300.17 146.92 294.40 142.82 289.74 Z" fill="#f4f0eb" opacity="1.00" stroke="#f4f0eb" stroke-width="0.25"/>
<path d="M 156.16 295.12 C 161.39 299.79 164.57 306.27 169.04 311.62 L 168.01 311.94 C 168.23 315.42 168.66 318.88 169.19 322.32 C 166.23 322.17 165.35 318.86 163.76 316.90 C 163.50 315.55 163.31 314.19 163.20 312.82 C 163.87 313.81 164.67 314.74 165.92 314.94 C 165.80 313.88 165.67 312.82 165.54 311.76 C 161.53 306.84 157.75 301.34 156.16 295.12 Z" fill="#c1bcb6" opacity="1.00" stroke="#c1bcb6" stroke-width="0.25"/>
<path d="M 374.55 327.46 C 380.25 318.11 385.39 308.38 389.80 298.35 C 390.08 298.76 390.63 299.60 390.91 300.02 C 390.30 302.09 390.36 304.21 391.32 306.19 C 382.75 324.27 371.82 341.37 357.68 355.62 C 345.32 368.03 331.53 379.18 316.24 387.77 C 316.88 384.73 320.00 383.10 321.67 380.62 C 329.13 374.82 336.40 368.77 343.89 363.00 C 356.10 353.07 365.74 340.40 374.55 327.46 Z" fill="#dcdbdd" opacity="1.00" stroke="#dcdbdd" stroke-width="0.25"/>
<path d="M 186.94 327.99 C 196.56 321.40 203.95 312.24 211.57 303.55 C 211.65 305.09 212.36 306.88 211.18 308.21 C 206.98 314.49 202.23 320.61 196.06 325.10 C 193.52 326.83 190.79 328.26 188.32 330.09 C 187.97 329.57 187.28 328.52 186.94 327.99 Z" fill="#c1bcb6" opacity="1.00" stroke="#c1bcb6" stroke-width="0.25"/>
<path d="M 250.01 316.07 C 253.57 315.72 257.16 315.67 260.73 316.04 C 260.87 316.59 261.14 317.71 261.28 318.27 C 257.75 318.37 254.21 318.30 250.70 318.66 C 250.13 322.41 250.25 326.21 250.28 330.00 C 250.48 352.36 250.15 374.72 250.43 397.07 C 250.50 398.23 250.20 399.28 249.52 400.22 C 248.32 393.89 249.15 387.42 248.86 381.02 C 248.96 363.01 248.86 344.99 248.97 326.98 C 249.07 323.33 248.76 319.57 250.01 316.07 Z" fill="#f4f0eb" opacity="1.00" stroke="#f4f0eb" stroke-width="0.25"/>
<path d="M 322.56 360.55 C 333.73 345.37 346.49 331.45 357.74 316.34 C 351.57 328.68 343.62 340.09 335.11 350.95 C 327.55 360.12 320.76 369.93 312.74 378.71 C 305.40 387.38 297.57 395.63 290.37 404.42 C 287.05 408.58 286.01 414.10 282.52 418.16 C 280.80 418.57 278.99 418.68 277.31 418.00 C 281.13 409.90 286.73 402.44 292.78 395.72 C 302.35 383.70 313.16 372.71 322.56 360.55 Z" fill="#dcdbdd" opacity="1.00" stroke="#dcdbdd" stroke-width="0.25"/>
<path d="M 262.22 318.47 C 264.25 319.02 265.16 321.05 266.35 322.59 C 267.78 324.91 270.37 326.90 269.88 329.94 C 269.89 355.31 270.06 380.68 269.99 406.05 C 269.85 407.43 270.16 408.68 270.91 409.82 C 267.82 413.65 264.91 417.66 262.37 421.88 C 262.20 419.25 262.11 416.62 262.13 413.99 C 262.18 382.15 261.94 350.31 262.22 318.47 Z" fill="#c1bcb6" opacity="1.00" stroke="#c1bcb6" stroke-width="0.25"/>
<path d="M 252.93 320.05 C 255.23 320.06 257.53 320.07 259.84 320.07 C 259.87 353.04 259.83 386.01 259.74 418.99 C 259.64 426.24 260.02 433.54 259.15 440.76 C 258.51 439.13 257.88 437.50 257.17 435.91 C 256.73 435.80 255.86 435.58 255.42 435.47 C 254.54 434.20 253.54 433.02 252.33 432.06 C 252.23 428.44 252.49 424.83 252.61 421.22 C 253.31 418.10 253.43 414.90 253.18 411.72 C 252.83 381.17 253.08 350.60 252.93 320.05 Z" fill="#f4f0eb" opacity="1.00" stroke="#f4f0eb" stroke-width="0.25"/>
<path d="M 176.98 330.23 C 179.53 329.28 182.18 328.52 184.49 327.05 C 186.84 328.84 188.30 331.43 189.93 333.83 C 188.79 334.97 187.63 336.09 186.45 337.19 C 184.10 334.86 182.36 332.04 180.94 329.07 C 180.76 329.69 180.39 330.94 180.21 331.57 C 178.94 331.61 177.84 331.15 176.98 330.23 Z" fill="#c1bcb6" opacity="1.00" stroke="#c1bcb6" stroke-width="0.25"/>
<path d="M 189.93 333.83 C 193.80 338.96 198.08 343.77 202.38 348.54 C 215.83 364.77 229.41 381.08 245.44 394.83 C 246.77 397.91 247.62 401.69 251.09 403.07 C 251.08 404.07 250.89 405.04 250.51 405.98 C 246.85 402.37 242.86 399.08 239.73 394.97 C 234.25 389.21 228.70 383.50 222.78 378.20 C 218.93 373.72 214.61 369.69 210.49 365.47 C 201.41 356.97 195.14 346.05 186.45 337.19 C 187.63 336.09 188.79 334.97 189.93 333.83 Z" fill="#f4f0eb" opacity="1.00" stroke="#f4f0eb" stroke-width="0.25"/>
<path d="M 192.50 360.50 C 192.77 360.77 192.77 360.77 192.50 360.50 Z" fill="#343131" opacity="1.00" stroke="#343131" stroke-width="0.25"/>
<path d="M 193.50 363.18 C 194.04 362.55 194.59 361.93 195.14 361.32 C 197.46 365.28 200.86 368.47 203.48 372.22 L 203.61 373.81 C 199.22 371.31 197.13 366.46 193.50 363.18 Z" fill="#343131" opacity="1.00" stroke="#343131" stroke-width="0.25"/>
<path d="M 208.47 377.63 C 208.76 377.25 209.33 376.49 209.61 376.11 C 209.88 376.65 210.41 377.74 210.68 378.28 C 212.08 379.22 213.45 380.18 214.83 381.16 C 214.48 381.88 213.78 383.32 213.42 384.05 C 211.75 382.97 210.06 381.91 208.26 381.06 C 206.65 380.38 205.49 379.15 204.70 377.62 C 205.95 377.62 207.21 377.62 208.47 377.63 Z" fill="#c1bcb6" opacity="1.00" stroke="#c1bcb6" stroke-width="0.25"/>
<path d="M 316.02 378.34 C 316.09 378.49 316.24 378.80 316.31 378.96 C 309.62 388.92 302.55 398.67 294.87 407.90 C 290.98 411.27 288.56 415.92 286.55 420.58 C 282.75 426.65 278.27 432.27 274.24 438.18 C 269.65 444.62 264.34 450.67 260.99 457.89 C 259.73 456.09 258.12 453.20 260.21 451.41 C 267.97 442.59 274.82 433.05 281.82 423.64 C 285.86 418.38 288.97 412.46 291.51 406.35 C 292.11 404.81 293.41 403.74 294.66 402.74 C 298.81 399.53 301.76 395.12 305.51 391.49 C 308.98 387.08 313.32 383.30 316.02 378.34 Z" fill="#dcdbdd" opacity="1.00" stroke="#dcdbdd" stroke-width="0.25"/>
<path d="M 219.21 380.40 C 221.79 379.33 222.72 382.16 223.88 383.82 C 222.46 383.74 221.06 383.59 219.67 383.31 C 219.51 382.34 219.35 381.37 219.21 380.40 Z" fill="#343131" opacity="1.00" stroke="#343131" stroke-width="0.25"/>
<path d="M 214.12 384.04 C 223.12 390.56 230.47 399.42 236.10 408.99 C 237.01 410.19 237.54 411.59 237.58 413.11 C 240.49 415.98 242.69 419.57 246.04 421.99 C 247.90 422.45 249.68 423.25 251.60 423.51 C 251.66 425.81 251.87 428.10 252.08 430.40 L 250.86 430.95 C 248.19 427.69 244.94 424.77 241.48 422.35 C 240.58 418.78 237.28 416.60 235.40 413.62 C 235.94 410.61 233.37 408.43 231.55 406.42 C 226.02 400.95 221.88 394.30 216.79 388.45 C 215.76 387.08 214.26 385.89 214.12 384.04 Z" fill="#f4f0eb" opacity="1.00" stroke="#f4f0eb" stroke-width="0.25"/>
<path d="M 231.99 389.90 C 234.43 391.83 236.45 394.20 238.56 396.48 C 243.17 401.83 249.10 405.89 253.18 411.72 C 253.43 414.90 253.31 418.10 252.61 421.22 C 250.38 418.09 249.55 414.11 246.70 411.40 C 242.53 407.08 239.61 401.61 234.90 397.83 L 234.59 398.89 C 234.18 398.61 233.38 398.05 232.97 397.77 L 232.67 399.23 C 231.39 397.79 232.10 396.68 233.98 396.74 C 233.82 394.33 233.05 392.05 231.99 389.90 Z" fill="#c1bcb6" opacity="1.00" stroke="#c1bcb6" stroke-width="0.25"/>
<path d="M 217.11 394.98 C 217.45 396.13 217.68 397.31 217.80 398.52 C 218.92 398.83 219.91 398.54 220.78 397.66 C 222.57 400.53 224.87 403.02 227.28 405.38 C 227.77 406.98 228.43 408.52 229.23 410.00 C 228.67 410.10 227.54 410.31 226.97 410.41 C 224.73 408.51 222.95 404.02 219.37 405.67 C 217.37 406.40 215.47 404.95 213.58 404.49 C 211.02 403.36 208.07 402.89 205.92 401.01 C 206.61 401.10 207.99 401.28 208.69 401.37 C 207.24 400.03 205.44 399.22 203.73 398.30 C 206.67 397.97 210.04 399.14 212.60 397.25 C 214.10 397.07 215.62 396.98 217.14 396.91 C 217.13 396.43 217.12 395.46 217.11 394.98 Z" fill="#c1bcb6" opacity="1.00" stroke="#c1bcb6" stroke-width="0.25"/>
<path d="M 232.97 397.77 C 233.38 398.05 234.18 398.61 234.59 398.89 C 236.18 401.44 237.34 404.32 239.35 406.58 C 244.40 411.14 248.89 416.46 251.92 422.59 C 248.59 423.25 245.45 420.90 243.99 418.06 C 240.33 411.72 236.22 405.65 232.67 399.23 L 232.97 397.77 Z" fill="#f4f0eb" opacity="1.00" stroke="#f4f0eb" stroke-width="0.25"/>
<path d="M 263.71 424.80 C 269.51 415.81 274.76 406.08 282.82 398.90 C 282.67 399.84 282.54 400.79 282.42 401.75 C 282.71 402.15 283.29 402.95 283.57 403.35 L 283.76 403.61 C 276.85 412.72 270.97 422.69 263.13 431.10 C 262.77 431.36 262.05 431.88 261.69 432.14 C 260.79 429.55 262.51 426.99 263.71 424.80 Z" fill="#c1bcb6" opacity="1.00" stroke="#c1bcb6" stroke-width="0.25"/>
<path d="M 226.97 410.41 C 227.54 410.31 228.67 410.10 229.23 410.00 C 231.31 412.29 233.67 414.33 235.25 417.02 C 238.70 421.15 243.05 424.42 246.61 428.45 C 249.35 431.58 253.32 433.35 255.77 436.76 C 255.69 436.44 255.51 435.80 255.42 435.47 C 255.86 435.58 256.73 435.80 257.17 435.91 C 257.88 437.50 258.51 439.13 259.15 440.76 C 259.23 441.21 259.39 442.12 259.47 442.57 C 260.22 443.23 260.97 443.90 261.72 444.57 C 261.35 447.36 259.61 449.63 257.92 451.77 C 247.56 438.03 235.72 425.31 226.97 410.41 Z" fill="#dcdbdd" opacity="1.00" stroke="#dcdbdd" stroke-width="0.25"/>
<path d="M 270.00 427.00 C 272.22 423.92 274.45 420.85 276.75 417.84 L 277.31 418.00 C 278.99 418.68 280.80 418.57 282.52 418.16 C 281.01 421.28 278.18 423.51 276.31 426.42 C 272.47 430.50 270.40 436.46 264.86 438.69 C 264.44 438.66 263.60 438.59 263.18 438.55 C 263.37 437.93 263.75 436.68 263.94 436.06 C 266.62 433.51 267.82 429.92 270.00 427.00 Z" fill="#c1bcb6" opacity="1.00" stroke="#c1bcb6" stroke-width="0.25"/>
</svg>